<svg width="125" height="24" viewBox="0 0 125 24" fill="none" xmlns="http://www.w3.org/2000/svg">
<path d="M41.968 23.8937C40.6341 23.8937 39.6829 23.4891 39.1144 22.6801C38.5677 21.871 38.2944 20.7667 38.2944 19.3673V0.343262H42.0664V19.5641C42.0664 20.0233 42.1539 20.3513 42.3288 20.5481C42.5037 20.723 42.6896 20.8105 42.8864 20.8105H43.116C43.2035 20.7886 43.3237 20.7667 43.4768 20.7449L43.9688 23.5657C43.7501 23.6531 43.4659 23.7297 43.116 23.7953C42.788 23.8609 42.4053 23.8937 41.968 23.8937Z" fill="#1B353D"/>
<path d="M5.39601 22.6145C6.86108 23.4673 8.49014 23.8937 10.2832 23.8937C11.6608 23.8937 12.9072 23.6313 14.0224 23.1065C15.1595 22.5598 16.1653 21.7835 17.04 20.7777L15.0064 18.3833C14.3941 19.0393 13.7163 19.575 12.9728 19.9905C12.2293 20.3841 11.3765 20.5809 10.4144 20.5809C8.62134 20.5809 7.18907 19.8921 6.11761 18.5145C5.04614 17.115 4.51041 15.1907 4.51041 12.7417C4.51041 11.1235 4.76188 9.735 5.26481 8.57606C5.78961 7.41713 6.50028 6.53153 7.39681 5.91926C8.31521 5.28513 9.35387 4.96806 10.5128 4.96806C11.3437 4.96806 12.0872 5.143 12.7432 5.49286C13.4211 5.82086 14.0333 6.26913 14.58 6.83766L16.6136 4.37766C15.9357 3.65606 15.072 3.02193 14.0224 2.47526C12.9728 1.9286 11.7701 1.65526 10.4144 1.65526C8.62134 1.65526 6.98134 2.10353 5.49441 3.00006C4.00748 3.87473 2.81574 5.15393 1.91921 6.83766C1.04454 8.49953 0.607208 10.5003 0.607208 12.8401C0.607208 15.2017 1.03361 17.2134 1.88641 18.8753C2.76108 20.5153 3.93094 21.7617 5.39601 22.6145Z" fill="#1B353D"/>
<path fill-rule="evenodd" clip-rule="evenodd" d="M23.1464 22.9097C24.3054 23.5657 25.5518 23.8937 26.8856 23.8937C28.2414 23.8937 29.4987 23.5657 30.6576 22.9097C31.8166 22.2318 32.7568 21.2697 33.4784 20.0233C34.2 18.755 34.5608 17.2353 34.5608 15.4641C34.5608 13.671 34.2 12.1513 33.4784 10.9049C32.7568 9.63659 31.8166 8.67446 30.6576 8.01846C29.4987 7.34059 28.2414 7.00166 26.8856 7.00166C25.5518 7.00166 24.3054 7.34059 23.1464 8.01846C21.9875 8.67446 21.0472 9.63659 20.3256 10.9049C19.604 12.1513 19.2432 13.671 19.2432 15.4641C19.2432 17.2353 19.604 18.755 20.3256 20.0233C21.0472 21.2697 21.9875 22.2318 23.1464 22.9097ZM29.6736 19.3345C28.9958 20.3185 28.0664 20.8105 26.8856 20.8105C25.7048 20.8105 24.7755 20.3185 24.0976 19.3345C23.4416 18.3505 23.1136 17.0603 23.1136 15.4641C23.1136 13.8459 23.4416 12.5449 24.0976 11.5609C24.7755 10.5769 25.7048 10.0849 26.8856 10.0849C28.0664 10.0849 28.9958 10.5769 29.6736 11.5609C30.3515 12.5449 30.6904 13.8459 30.6904 15.4641C30.6904 17.0603 30.3515 18.3505 29.6736 19.3345Z" fill="#1B353D"/>
<path d="M48.2159 22.2209C49.0031 23.3361 50.2604 23.8937 51.9879 23.8937C53.0812 23.8937 54.0434 23.6422 54.8743 23.1393C55.7052 22.6363 56.4706 21.9694 57.1703 21.1385H57.2687L57.5639 23.5001H60.6471V7.39526H56.8751V18.4161C56.2628 19.2033 55.6834 19.7718 55.1367 20.1217C54.6119 20.4715 53.9996 20.6465 53.2999 20.6465C52.4252 20.6465 51.7911 20.3731 51.3975 19.8265C51.0039 19.2798 50.8071 18.3395 50.8071 17.0057V7.39526H47.0351V17.4977C47.0351 19.5313 47.4287 21.1057 48.2159 22.2209Z" fill="#1B353D"/>
<path d="M65.4249 23.5001V7.39526H68.5409L68.8033 9.59286H68.9345C69.6123 8.87126 70.3449 8.259 71.1321 7.75606C71.9411 7.25313 72.8486 7.00166 73.8545 7.00166C75.0353 7.00166 75.9755 7.26406 76.6753 7.78886C77.3969 8.29179 77.9435 8.99153 78.3153 9.88806C79.0806 9.05713 79.8787 8.36833 80.7097 7.82166C81.5625 7.275 82.4918 7.00166 83.4977 7.00166C85.2033 7.00166 86.4606 7.55926 87.2697 8.67446C88.0787 9.78966 88.4833 11.3641 88.4833 13.3977V23.5001H84.6785V13.8897C84.6785 12.5558 84.4707 11.6155 84.0553 11.0689C83.6617 10.5222 83.0494 10.2489 82.2185 10.2489C81.2126 10.2489 80.0865 10.9158 78.8401 12.2497V23.5001H75.0681V13.8897C75.0681 12.5558 74.8603 11.6155 74.4449 11.0689C74.0513 10.5222 73.4281 10.2489 72.5753 10.2489C71.5694 10.2489 70.4433 10.9158 69.1969 12.2497V23.5001H65.4249Z" fill="#1B353D"/>
<path d="M93.0678 7.39526V23.5001H96.8398V12.2497C97.5177 11.5937 98.119 11.1017 98.6438 10.7737C99.1905 10.4238 99.8137 10.2489 100.513 10.2489C101.41 10.2489 102.055 10.5222 102.449 11.0689C102.842 11.6155 103.039 12.5558 103.039 13.8897V23.5001H106.811V13.3977C106.811 11.3641 106.417 9.78966 105.63 8.67446C104.843 7.55926 103.586 7.00166 101.858 7.00166C100.765 7.00166 99.7918 7.25313 98.939 7.75606C98.0862 8.259 97.299 8.86033 96.5774 9.56006H96.4462L96.1838 7.39526H93.0678Z" fill="#1B353D"/>
<path d="M116.045 7.9115C115.627 7.9115 115.26 8.19413 115.148 8.59646C114.908 9.4557 113.723 9.56616 113.35 8.75596L112.107 6.05623C111.658 5.08218 112.711 4.0993 113.652 4.61342L116.491 6.16457C117.337 6.62654 117.009 7.9115 116.045 7.9115Z" fill="#3B7586"/>
<path d="M113.542 11.17C113.925 12.0036 115.136 11.923 115.406 11.0458L115.941 9.30685C116.072 8.88082 116.469 8.593 116.915 8.60113L118.467 8.62944C119.512 8.64851 119.882 7.25323 118.964 6.75202L113.543 3.79026C113.266 3.63887 113.245 3.25177 113.521 3.0984C114.527 2.52987 115.62 2.24561 116.801 2.24561C118.157 2.24561 119.403 2.60641 120.54 3.32801C121.699 4.04961 122.617 5.1648 123.295 6.6736C123.995 8.16054 124.345 10.0739 124.345 12.4136C124.345 15.1032 123.962 17.3008 123.197 19.0064C122.432 20.6901 121.426 21.9256 120.179 22.7128C118.933 23.5 117.588 23.8936 116.145 23.8936C114.899 23.8936 113.816 23.664 112.898 23.2048C112.286 22.8989 111.737 22.5493 111.251 22.156C110.846 21.8274 110.836 21.2302 111.182 20.8393L111.842 20.0951C112.244 19.641 112.956 19.6544 113.451 20.0041C113.646 20.1417 113.855 20.2683 114.079 20.384C114.691 20.6683 115.314 20.8104 115.948 20.8104C116.823 20.8104 117.621 20.5699 118.343 20.0888C119.064 19.6077 119.655 18.8096 120.114 17.6944C120.322 17.1786 120.488 16.5817 120.61 15.9038C120.775 14.9935 119.522 14.4427 118.703 14.8736C117.872 15.3109 117.074 15.5296 116.309 15.5296C114.516 15.5296 113.051 15.0048 111.914 13.9552C110.799 12.8837 110.241 11.2547 110.241 9.068C110.241 8.54195 110.283 8.0437 110.366 7.57326C110.51 6.75886 111.506 6.75102 111.852 7.50228L113.542 11.17Z" fill="#0F756B"/>
</svg>
